<svg xmlns="http://www.w3.org/2000/svg"  viewBox="0 0 100 100" width="100px" height="100px"><path fill="#78a1d1" d="M69.307,81.961h-39c-6.6,0-12-5.4-12-12v-39c0-6.6,5.4-12,12-12h39c6.6,0,12,5.4,12,12v39C81.307,76.561,75.907,81.961,69.307,81.961z"/><path fill="#1f212b" d="M69.307,82.961h-39c-7.168,0-13-5.832-13-13v-39c0-7.168,5.832-13,13-13h39c7.168,0,13,5.832,13,13v39C82.307,77.129,76.476,82.961,69.307,82.961z M30.307,19.961c-6.065,0-11,4.935-11,11v39c0,6.065,4.935,11,11,11h39c6.065,0,11-4.935,11-11v-39c0-6.065-4.935-11-11-11H30.307z"/><path fill="#78a1d1" d="M76.807,48.461v18.663c0,5.685-4.652,10.337-10.337,10.337H33.144c-5.685,0-10.337-4.652-10.337-10.337V33.798c0-5.685,4.652-10.337,10.337-10.337h33.663"/><path fill="#1f212b" d="M66.47 77.961H33.144c-5.976 0-10.837-4.861-10.837-10.837V33.798c0-5.976 4.861-10.837 10.837-10.837h33.663c.276 0 .5.224.5.5s-.224.5-.5.5H33.144c-5.424 0-9.837 4.413-9.837 9.837v33.326c0 5.424 4.413 9.837 9.837 9.837H66.47c5.424 0 9.837-4.413 9.837-9.837V48.461c0-.276.224-.5.5-.5s.5.224.5.5v18.663C77.307 73.099 72.446 77.961 66.47 77.961zM76.807 45.961c-.276 0-.5-.224-.5-.5v-4c0-.276.224-.5.5-.5s.5.224.5.5v4C77.307 45.737 77.083 45.961 76.807 45.961zM76.807 39.961c-.276 0-.5-.224-.5-.5v-2c0-.276.224-.5.5-.5s.5.224.5.5v2C77.307 39.737 77.083 39.961 76.807 39.961z"/><path fill="#fdfcee" d="M53.342,62.596c-0.066,1.354,1.359,2.032,4.275,2.032V67.2H42.383v-2.573c2.817,0,4.227-0.677,4.227-2.032V48.871c0-1.384-1.409-2.076-4.227-2.076v-2.574h10.959V62.596z M53.931,36.637c0,1.054-0.401,1.964-1.204,2.732c-0.803,0.767-1.794,1.151-2.973,1.151c-0.59,0-1.139-0.105-1.646-0.316c-0.509-0.211-0.95-0.489-1.327-0.835c-0.377-0.346-0.681-0.752-0.909-1.219c-0.229-0.466-0.344-0.971-0.344-1.512c0-1.083,0.418-1.993,1.253-2.731c0.835-0.737,1.826-1.106,2.973-1.106c1.146,0,2.129,0.377,2.948,1.129C53.521,34.681,53.931,35.584,53.931,36.637z"/><path fill="#1f212b" d="M57.617,67.7H42.383c-0.276,0-0.5-0.224-0.5-0.5v-2.573c0-0.276,0.224-0.5,0.5-0.5c2.473,0,3.727-0.515,3.727-1.532V48.871c0-1.046-1.254-1.577-3.727-1.577c-0.276,0-0.5-0.224-0.5-0.5v-2.573c0-0.276,0.224-0.5,0.5-0.5h10.959c0.276,0,0.5,0.224,0.5,0.5v18.375c0,0.008,0,0.016,0,0.024c-0.015,0.294,0.065,0.521,0.25,0.716c0.344,0.361,1.235,0.792,3.525,0.792c0.276,0,0.5,0.224,0.5,0.5V67.2C58.117,67.477,57.894,67.7,57.617,67.7z M42.883,66.7h14.234v-1.58c-1.871-0.053-3.1-0.413-3.75-1.095c-0.374-0.392-0.55-0.877-0.525-1.441V44.721h-9.959v1.581c2.805,0.089,4.227,0.953,4.227,2.569v13.725c0,1.588-1.421,2.436-4.227,2.524V66.7z M53.342,62.596h0.01H53.342z M49.755,41.02c-0.653,0-1.271-0.119-1.838-0.354c-0.559-0.231-1.055-0.543-1.474-0.929c-0.423-0.389-0.766-0.849-1.02-1.368c-0.262-0.533-0.395-1.116-0.395-1.732c0-1.227,0.479-2.272,1.422-3.105c0.926-0.817,2.038-1.232,3.305-1.232c1.269,0,2.375,0.424,3.286,1.26c0.923,0.849,1.391,1.884,1.391,3.077c0,1.19-0.457,2.23-1.358,3.093C52.177,40.586,51.061,41.02,49.755,41.02z M49.755,33.299c-1.03,0-1.895,0.321-2.643,0.981c-0.729,0.644-1.084,1.415-1.084,2.356c0,0.462,0.099,0.897,0.292,1.292c0.199,0.407,0.468,0.768,0.799,1.071c0.333,0.306,0.73,0.555,1.18,0.741c0.445,0.185,0.935,0.278,1.456,0.278c1.055,0,1.914-0.331,2.627-1.013c0.706-0.675,1.049-1.451,1.049-2.37c0-0.915-0.349-1.68-1.067-2.341C51.634,33.626,50.78,33.299,49.755,33.299z"/></svg>